<svg width="240" height="229" viewBox="0 0 240 229" fill="none" xmlns="http://www.w3.org/2000/svg">
<path d="M213.333 0H26.6667C12 0 0 11.4353 0 25.4118V203.294C0 217.271 12 228.706 26.6667 228.706H213.333C228 228.706 240 217.271 240 203.294V25.4118C240 11.4353 228 0 213.333 0ZM80 177.882H53.3333V50.8235H80V177.882ZM133.333 114.353H106.667V50.8235H133.333V114.353ZM186.667 152.471H160V50.8235H186.667V152.471Z" fill="#303030"/>
<path d="M213.333 0H26.6667C12 0 0 11.4353 0 25.4118V203.294C0 217.271 12 228.706 26.6667 228.706H213.333C228 228.706 240 217.271 240 203.294V25.4118C240 11.4353 228 0 213.333 0ZM80 177.882H53.3333V50.8235H80V177.882ZM133.333 114.353H106.667V50.8235H133.333V114.353ZM186.667 152.471H160V50.8235H186.667V152.471Z" fill="black" fill-opacity="0.2"/>
<path d="M213.333 0H26.6667C12 0 0 11.4353 0 25.4118V203.294C0 217.271 12 228.706 26.6667 228.706H213.333C228 228.706 240 217.271 240 203.294V25.4118C240 11.4353 228 0 213.333 0ZM80 177.882H53.3333V50.8235H80V177.882ZM133.333 114.353H106.667V50.8235H133.333V114.353ZM186.667 152.471H160V50.8235H186.667V152.471Z" fill="black" fill-opacity="0.2"/>
<path d="M213.333 0H26.6667C12 0 0 11.4353 0 25.4118V203.294C0 217.271 12 228.706 26.6667 228.706H213.333C228 228.706 240 217.271 240 203.294V25.4118C240 11.4353 228 0 213.333 0ZM80 177.882H53.3333V50.8235H80V177.882ZM133.333 114.353H106.667V50.8235H133.333V114.353ZM186.667 152.471H160V50.8235H186.667V152.471Z" fill="black" fill-opacity="0.2"/>
</svg>
