<svg width="305" height="229" viewBox="0 0 305 229" fill="none" xmlns="http://www.w3.org/2000/svg">
<path d="M0 137.226H33.883V91.484H0V137.226ZM0 228.71H33.883V182.968H0V228.71ZM0 45.742H33.883V0H0V45.742ZM67.7659 137.226H304.947V91.484H67.7659V137.226ZM67.7659 228.71H304.947V182.968H67.7659V228.71ZM67.7659 0V45.742H304.947V0H67.7659Z" fill="#303030"/>
<path d="M0 137.226H33.883V91.484H0V137.226ZM0 228.71H33.883V182.968H0V228.71ZM0 45.742H33.883V0H0V45.742ZM67.7659 137.226H304.947V91.484H67.7659V137.226ZM67.7659 228.71H304.947V182.968H67.7659V228.71ZM67.7659 0V45.742H304.947V0H67.7659Z" fill="black" fill-opacity="0.2"/>
<path d="M0 137.226H33.883V91.484H0V137.226ZM0 228.71H33.883V182.968H0V228.71ZM0 45.742H33.883V0H0V45.742ZM67.7659 137.226H304.947V91.484H67.7659V137.226ZM67.7659 228.71H304.947V182.968H67.7659V228.71ZM67.7659 0V45.742H304.947V0H67.7659Z" fill="black" fill-opacity="0.2"/>
<path d="M0 137.226H33.883V91.484H0V137.226ZM0 228.71H33.883V182.968H0V228.71ZM0 45.742H33.883V0H0V45.742ZM67.7659 137.226H304.947V91.484H67.7659V137.226ZM67.7659 228.71H304.947V182.968H67.7659V228.71ZM67.7659 0V45.742H304.947V0H67.7659Z" fill="black" fill-opacity="0.2"/>
</svg>
