<svg width="16" height="19" viewBox="0 0 16 19" fill="none" xmlns="http://www.w3.org/2000/svg">
<path d="M6.08929 1.88125L5.41071 2.91667H10.5893L9.91072 1.88125C9.85714 1.80104 9.76786 1.75 9.67143 1.75H6.325C6.22857 1.75 6.13929 1.7974 6.08571 1.88125H6.08929ZM11.3393 0.911458L12.65 2.91667H13.1429H14.8571H15.1429C15.6179 2.91667 16 3.30677 16 3.79167C16 4.27656 15.6179 4.66667 15.1429 4.66667H14.8571V15.75C14.8571 17.3615 13.5786 18.6667 12 18.6667H4C2.42143 18.6667 1.14286 17.3615 1.14286 15.75V4.66667H0.857143C0.382143 4.66667 0 4.27656 0 3.79167C0 3.30677 0.382143 2.91667 0.857143 2.91667H1.14286H2.85714H3.35L4.66071 0.907812C5.03214 0.342708 5.65714 0 6.325 0H9.67143C10.3393 0 10.9643 0.342708 11.3357 0.907812L11.3393 0.911458ZM2.85714 4.66667V15.75C2.85714 16.3953 3.36786 16.9167 4 16.9167H12C12.6321 16.9167 13.1429 16.3953 13.1429 15.75V4.66667H2.85714ZM5.71429 7V14.5833C5.71429 14.9042 5.45714 15.1667 5.14286 15.1667C4.82857 15.1667 4.57143 14.9042 4.57143 14.5833V7C4.57143 6.67917 4.82857 6.41667 5.14286 6.41667C5.45714 6.41667 5.71429 6.67917 5.71429 7ZM8.57143 7V14.5833C8.57143 14.9042 8.31429 15.1667 8 15.1667C7.68571 15.1667 7.42857 14.9042 7.42857 14.5833V7C7.42857 6.67917 7.68571 6.41667 8 6.41667C8.31429 6.41667 8.57143 6.67917 8.57143 7ZM11.4286 7V14.5833C11.4286 14.9042 11.1714 15.1667 10.8571 15.1667C10.5429 15.1667 10.2857 14.9042 10.2857 14.5833V7C10.2857 6.67917 10.5429 6.41667 10.8571 6.41667C11.1714 6.41667 11.4286 6.67917 11.4286 7Z" fill="#303030"/>
<path d="M6.08929 1.88125L5.41071 2.91667H10.5893L9.91072 1.88125C9.85714 1.80104 9.76786 1.75 9.67143 1.75H6.325C6.22857 1.75 6.13929 1.7974 6.08571 1.88125H6.08929ZM11.3393 0.911458L12.65 2.91667H13.1429H14.8571H15.1429C15.6179 2.91667 16 3.30677 16 3.79167C16 4.27656 15.6179 4.66667 15.1429 4.66667H14.8571V15.75C14.8571 17.3615 13.5786 18.6667 12 18.6667H4C2.42143 18.6667 1.14286 17.3615 1.14286 15.75V4.66667H0.857143C0.382143 4.66667 0 4.27656 0 3.79167C0 3.30677 0.382143 2.91667 0.857143 2.91667H1.14286H2.85714H3.35L4.66071 0.907812C5.03214 0.342708 5.65714 0 6.325 0H9.67143C10.3393 0 10.9643 0.342708 11.3357 0.907812L11.3393 0.911458ZM2.85714 4.66667V15.75C2.85714 16.3953 3.36786 16.9167 4 16.9167H12C12.6321 16.9167 13.1429 16.3953 13.1429 15.75V4.66667H2.85714ZM5.71429 7V14.5833C5.71429 14.9042 5.45714 15.1667 5.14286 15.1667C4.82857 15.1667 4.57143 14.9042 4.57143 14.5833V7C4.57143 6.67917 4.82857 6.41667 5.14286 6.41667C5.45714 6.41667 5.71429 6.67917 5.71429 7ZM8.57143 7V14.5833C8.57143 14.9042 8.31429 15.1667 8 15.1667C7.68571 15.1667 7.42857 14.9042 7.42857 14.5833V7C7.42857 6.67917 7.68571 6.41667 8 6.41667C8.31429 6.41667 8.57143 6.67917 8.57143 7ZM11.4286 7V14.5833C11.4286 14.9042 11.1714 15.1667 10.8571 15.1667C10.5429 15.1667 10.2857 14.9042 10.2857 14.5833V7C10.2857 6.67917 10.5429 6.41667 10.8571 6.41667C11.1714 6.41667 11.4286 6.67917 11.4286 7Z" fill="black" fill-opacity="0.2"/>
<path d="M6.08929 1.88125L5.41071 2.91667H10.5893L9.91072 1.88125C9.85714 1.80104 9.76786 1.75 9.67143 1.75H6.325C6.22857 1.75 6.13929 1.7974 6.08571 1.88125H6.08929ZM11.3393 0.911458L12.65 2.91667H13.1429H14.8571H15.1429C15.6179 2.91667 16 3.30677 16 3.79167C16 4.27656 15.6179 4.66667 15.1429 4.66667H14.8571V15.75C14.8571 17.3615 13.5786 18.6667 12 18.6667H4C2.42143 18.6667 1.14286 17.3615 1.14286 15.75V4.66667H0.857143C0.382143 4.66667 0 4.27656 0 3.79167C0 3.30677 0.382143 2.91667 0.857143 2.91667H1.14286H2.85714H3.35L4.66071 0.907812C5.03214 0.342708 5.65714 0 6.325 0H9.67143C10.3393 0 10.9643 0.342708 11.3357 0.907812L11.3393 0.911458ZM2.85714 4.66667V15.75C2.85714 16.3953 3.36786 16.9167 4 16.9167H12C12.6321 16.9167 13.1429 16.3953 13.1429 15.75V4.66667H2.85714ZM5.71429 7V14.5833C5.71429 14.9042 5.45714 15.1667 5.14286 15.1667C4.82857 15.1667 4.57143 14.9042 4.57143 14.5833V7C4.57143 6.67917 4.82857 6.41667 5.14286 6.41667C5.45714 6.41667 5.71429 6.67917 5.71429 7ZM8.57143 7V14.5833C8.57143 14.9042 8.31429 15.1667 8 15.1667C7.68571 15.1667 7.42857 14.9042 7.42857 14.5833V7C7.42857 6.67917 7.68571 6.41667 8 6.41667C8.31429 6.41667 8.57143 6.67917 8.57143 7ZM11.4286 7V14.5833C11.4286 14.9042 11.1714 15.1667 10.8571 15.1667C10.5429 15.1667 10.2857 14.9042 10.2857 14.5833V7C10.2857 6.67917 10.5429 6.41667 10.8571 6.41667C11.1714 6.41667 11.4286 6.67917 11.4286 7Z" fill="black" fill-opacity="0.2"/>
<path d="M6.08929 1.88125L5.41071 2.91667H10.5893L9.91072 1.88125C9.85714 1.80104 9.76786 1.75 9.67143 1.75H6.325C6.22857 1.75 6.13929 1.7974 6.08571 1.88125H6.08929ZM11.3393 0.911458L12.65 2.91667H13.1429H14.8571H15.1429C15.6179 2.91667 16 3.30677 16 3.79167C16 4.27656 15.6179 4.66667 15.1429 4.66667H14.8571V15.75C14.8571 17.3615 13.5786 18.6667 12 18.6667H4C2.42143 18.6667 1.14286 17.3615 1.14286 15.75V4.66667H0.857143C0.382143 4.66667 0 4.27656 0 3.79167C0 3.30677 0.382143 2.91667 0.857143 2.91667H1.14286H2.85714H3.35L4.66071 0.907812C5.03214 0.342708 5.65714 0 6.325 0H9.67143C10.3393 0 10.9643 0.342708 11.3357 0.907812L11.3393 0.911458ZM2.85714 4.66667V15.75C2.85714 16.3953 3.36786 16.9167 4 16.9167H12C12.6321 16.9167 13.1429 16.3953 13.1429 15.75V4.66667H2.85714ZM5.71429 7V14.5833C5.71429 14.9042 5.45714 15.1667 5.14286 15.1667C4.82857 15.1667 4.57143 14.9042 4.57143 14.5833V7C4.57143 6.67917 4.82857 6.41667 5.14286 6.41667C5.45714 6.41667 5.71429 6.67917 5.71429 7ZM8.57143 7V14.5833C8.57143 14.9042 8.31429 15.1667 8 15.1667C7.68571 15.1667 7.42857 14.9042 7.42857 14.5833V7C7.42857 6.67917 7.68571 6.41667 8 6.41667C8.31429 6.41667 8.57143 6.67917 8.57143 7ZM11.4286 7V14.5833C11.4286 14.9042 11.1714 15.1667 10.8571 15.1667C10.5429 15.1667 10.2857 14.9042 10.2857 14.5833V7C10.2857 6.67917 10.5429 6.41667 10.8571 6.41667C11.1714 6.41667 11.4286 6.67917 11.4286 7Z" fill="black" fill-opacity="0.2"/>
</svg>
